<?xml version="1.0" standalone="no"?>
<!DOCTYPE svg PUBLIC "-//W3C//DTD SVG 20010904//EN"
 "http://www.w3.org/TR/2001/REC-SVG-20010904/DTD/svg10.dtd">
<svg version="1.0" xmlns="http://www.w3.org/2000/svg"
 width="128.000000pt" height="128.000000pt" viewBox="0 0 128.000000 128.000000"
 preserveAspectRatio="xMidYMid meet">
<metadata>
Created by potrace 1.14, written by Peter Selinger 2001-2017
</metadata>
<g transform="translate(0.000000,128.000000) scale(0.100000,-0.100000)"
fill="#000000" stroke="none">
<path d="M506 1250 c-28 -3 -53 -11 -58 -20 -10 -16 -286 -764 -284 -767 1 -1
40 11 86 27 47 16 108 32 135 35 77 10 97 14 104 20 3 4 35 95 71 203 57 173
68 197 88 200 12 2 22 2 22 0 0 -2 31 -95 68 -207 l68 -205 48 -2 c63 -3 173
-29 230 -53 25 -11 46 -18 46 -15 0 3 -25 73 -56 157 -31 84 -85 231 -120 327
-36 96 -69 184 -74 195 -5 11 -14 37 -20 58 -8 26 -19 39 -36 43 -32 8 -253
11 -318 4z"/>
<path d="M418 403 c-5 -45 12 -125 34 -162 19 -30 22 -32 31 -15 34 62 115 46
118 -23 2 -62 7 -82 25 -113 10 -18 30 -40 43 -48 l23 -16 -5 39 c-7 52 10 82
70 125 58 41 74 57 96 92 19 30 28 86 20 118 -5 19 -7 20 -29 5 -84 -55 -336
-48 -384 11 -19 22 -38 16 -42 -13z"/>
</g>
</svg>
